HIERARCHY
ROOT Hips
{
	OFFSET -0.001795 -0.223333 0.028219
	CHANNELS 6 Xposition Yposition Zposition Zrotation Yrotation Xrotation 
	JOINT LeftUpLeg
	{
		OFFSET 0.069520 -0.091406 -0.006815
		CHANNELS 3 Zrotation Yrotation Xrotation
		JOINT LeftLeg
		{
			OFFSET 0.034277 -0.375199 -0.004496
			CHANNELS 3 Zrotation Yrotation Xrotation
			JOINT LeftFoot
			{
				OFFSET -0.013596 -0.397961 -0.043693
				CHANNELS 3 Zrotation Yrotation Xrotation
				JOINT LeftToe
				{
					OFFSET 0.026358 -0.055791 0.119288
					CHANNELS 3 Zrotation Yrotation Xrotation
					End Site
					{
						OFFSET 0.000000 0.000000 0.000000
					}
				}
			}
		}
	}
	JOINT RightUpLeg
	{
		OFFSET -0.067670 -0.090522 -0.004320
		CHANNELS 3 Zrotation Yrotation Xrotation
		JOINT RightLeg
		{
			OFFSET -0.038290 -0.382569 -0.008850
			CHANNELS 3 Zrotation Yrotation Xrotation
			JOINT RightFoot
			{
				OFFSET 0.015774 -0.398415 -0.042312
				CHANNELS 3 Zrotation Yrotation Xrotation
				JOINT RightToe
				{
					OFFSET -0.025372 -0.048144 0.123348
					CHANNELS 3 Zrotation Yrotation Xrotation
					End Site
					{
						OFFSET 0.000000 0.000000 0.000000
					}
				}
			}
		}
	}
	JOINT Spine
	{
		OFFSET -0.002533 0.108963 -0.026696
		CHANNELS 3 Zrotation Yrotation Xrotation
		JOINT Spine1
		{
			OFFSET 0.005487 0.135180 0.001092
			CHANNELS 3 Zrotation Yrotation Xrotation
			JOINT Spine2
			{
				OFFSET 0.001457 0.052922 0.025425
				CHANNELS 3 Zrotation Yrotation Xrotation
				JOINT Neck
				{
					OFFSET -0.002778 0.213870 -0.042857
					CHANNELS 3 Zrotation Yrotation Xrotation
					JOINT Head
					{
						OFFSET 0.005152 0.064970 0.051349
						CHANNELS 3 Zrotation Yrotation Xrotation
						End Site
						{
							OFFSET 0.000000 0.000000 0.000000
						}
					}
				}
				JOINT LeftShoulder
				{
					OFFSET 0.078845 0.121749 -0.034090
					CHANNELS 3 Zrotation Yrotation Xrotation
					JOINT LeftArm
					{
						OFFSET 0.090977 0.030469 -0.008868
						CHANNELS 3 Zrotation Yrotation Xrotation
						JOINT LeftForeArm
						{
							OFFSET 0.259612 -0.012772 -0.027456
							CHANNELS 3 Zrotation Yrotation Xrotation
							JOINT LeftHand
							{
								OFFSET 0.249234 0.008986 -0.001171
								CHANNELS 3 Zrotation Yrotation Xrotation
								End Site
								{
									OFFSET 0.000000 0.000000 0.000000
								}
							}
						}
					}
				}
				JOINT RightShoulder
				{
					OFFSET -0.081759 0.118833 -0.038615
					CHANNELS 3 Zrotation Yrotation Xrotation
					JOINT RightArm
					{
						OFFSET -0.096012 0.032551 -0.009143
						CHANNELS 3 Zrotation Yrotation Xrotation
						JOINT RightForeArm
						{
							OFFSET -0.253742 -0.013329 -0.021401
							CHANNELS 3 Zrotation Yrotation Xrotation
							JOINT RightHand
							{
								OFFSET -0.255298 0.007772 -0.005559
								CHANNELS 3 Zrotation Yrotation Xrotation
								End Site
								{
									OFFSET 0.000000 0.000000 0.000000
								}
							}
						}
					}
				}
			}
		}
	}
}
MOTION
Frames: 16
Frame Time: 0.050000
0.068653 0.946350 0.378023 1.489913 6.772435 11.310070 -1.144826 -1.272239 -12.823675 -0.733486 0.187350 -4.576076 -0.754222 4.488250 12.657653 0.000000 0.000000 0.000000 -1.863050 1.037557 -11.981044 -0.315420 -0.211503 -5.643305 4.846988 5.000982 13.232145 0.000000 0.000000 0.000000 8.355299 -1.778280 10.785545 -0.717521 0.054063 5.485590 -6.289478 6.380181 2.627230 13.886857 -4.734858 -21.661594 0.000000 0.000000 0.000000 -27.375526 -34.528031 15.788822 -22.987137 -19.431170 1.339235 48.269330 -72.175402 -34.362987 0.000000 0.000000 0.000000 23.260958 24.450141 16.863987 24.031723 26.222675 1.144397 -29.636289 65.388460 -14.308144 0.000000 0.000000 0.000000 
0.068371 0.946290 0.380310 1.609349 6.720366 10.670456 -1.237457 -1.182316 -11.954910 -0.800172 0.190975 -4.569281 -0.725440 4.447387 12.454536 0.000000 0.000000 0.000000 -2.028656 0.952114 -10.966028 -0.127912 -0.236267 -5.921589 4.877378 5.126378 13.054500 0.000000 0.000000 0.000000 8.645499 -1.643727 9.597537 -0.804008 0.108064 5.377091 -6.281725 5.669290 2.222831 13.645626 -4.726603 -21.394243 0.000000 0.000000 0.000000 -27.853212 -33.460201 15.350942 -23.180206 -18.765817 1.244319 45.392064 -73.471112 -32.756307 0.000000 0.000000 0.000000 24.538897 23.492250 16.338120 25.485803 25.034084 1.152167 -24.592686 67.184453 -11.594921 0.000000 0.000000 0.000000 
0.067874 0.946323 0.382090 1.811870 6.480030 10.221025 -1.461339 -1.130130 -11.365230 -0.766414 0.187489 -4.458980 -0.616885 4.554803 12.350370 0.000000 0.000000 0.000000 -2.096101 0.890899 -10.182176 -0.293140 -0.241390 -6.246532 4.994254 5.366931 12.938952 0.000000 0.000000 0.000000 8.541083 -1.449983 8.372974 -0.689038 0.067057 5.127800 -6.034634 5.475261 2.304762 13.278949 -4.647140 -21.048612 0.000000 0.000000 0.000000 -28.771735 -32.750309 15.101001 -23.059483 -18.654838 1.221784 42.178232 -74.200173 -30.533228 0.000000 0.000000 0.000000 25.856164 22.581649 15.984958 26.089297 24.043836 1.008254 -20.365055 68.120813 -9.046654 0.000000 0.000000 0.000000 
0.067481 0.945943 0.383629 1.908647 6.145470 9.688808 -1.716517 -1.061662 -10.629593 -0.502590 0.174935 -4.482968 -0.434212 4.723818 12.117903 0.000000 0.000000 0.000000 -2.046048 0.820780 -9.197242 -0.477128 -0.260486 -6.849675 5.176541 5.706358 12.852113 0.000000 0.000000 0.000000 8.664641 -1.304478 7.281089 -0.721310 0.081890 5.371138 -5.863180 4.950159 1.706271 13.089535 -4.692463 -20.614728 0.000000 0.000000 0.000000 -29.324963 -31.695306 14.673807 -23.128242 -18.271379 1.164300 38.617426 -74.974784 -27.999521 0.000000 0.000000 0.000000 26.729495 22.001909 15.526250 27.276045 23.087663 1.025182 -14.463280 68.955845 -5.314529 0.000000 0.000000 0.000000 
0.067232 0.945678 0.385003 1.803698 5.423387 9.287577 -1.783646 -0.978259 -9.849299 -0.217978 0.171394 -4.856800 -0.075446 5.177246 12.005196 0.000000 0.000000 0.000000 -1.881175 0.782241 -8.569002 -0.531968 -0.275975 -7.228427 5.557170 6.313345 12.891736 0.000000 0.000000 0.000000 8.785709 -1.219283 6.664856 -0.617292 0.051402 5.262058 -5.522170 5.078413 1.734345 13.261225 -4.919643 -20.217148 0.000000 0.000000 0.000000 -29.644154 -31.081000 14.384097 -23.435446 -17.831114 1.104088 37.089359 -76.245417 -27.363531 0.000000 0.000000 0.000000 27.006510 21.266157 14.962051 28.140215 22.669293 1.049732 -8.914532 69.827087 -1.610341 0.000000 0.000000 0.000000 
0.067280 0.945227 0.386180 1.837683 4.625597 9.063411 -2.008841 -0.921744 -9.246724 0.041274 0.170828 -5.246130 0.311073 5.688492 11.942234 0.000000 0.000000 0.000000 -1.900948 0.749609 -8.128213 -0.585212 -0.292542 -7.630251 5.946358 6.947372 12.897303 0.000000 0.000000 0.000000 9.105548 -1.142428 5.912262 -0.861044 0.187961 5.525993 -5.189139 4.882094 1.421397 13.352304 -5.024538 -20.224198 0.000000 0.000000 0.000000 -29.543225 -30.146249 13.961560 -23.523823 -17.120925 0.947121 36.443473 -77.931485 -27.549299 0.000000 0.000000 0.000000 27.685324 20.805833 14.516437 28.549081 22.267044 1.078798 -3.424823 70.155618 2.029049 0.000000 0.000000 0.000000 
0.067644 0.944756 0.386936 1.805701 3.894202 8.720858 -2.171104 -0.878000 -8.773982 0.281001 0.159038 -5.239794 0.712598 6.189768 11.742517 0.000000 0.000000 0.000000 -1.875481 0.734520 -7.912561 -0.631983 -0.279079 -7.433096 6.244759 7.537476 12.679904 0.000000 0.000000 0.000000 9.356164 -1.107955 5.593625 -0.700586 0.117533 5.697580 -4.934880 4.760765 1.006303 13.671407 -5.224430 -20.312644 0.000000 0.000000 0.000000 -29.330135 -29.389797 13.585721 -23.605969 -16.568695 0.831056 37.484217 -79.053397 -28.913537 0.000000 0.000000 0.000000 28.076963 20.103757 13.880241 29.202951 22.177365 1.192502 1.674784 70.490729 5.520630 0.000000 0.000000 0.000000 
0.068282 0.944373 0.387195 1.980466 3.274638 8.568698 -2.562944 -0.851172 -8.391710 0.500859 0.156783 -5.490787 0.996562 6.583164 11.747901 0.000000 0.000000 0.000000 -2.074829 0.717771 -7.758086 -0.724614 -0.277668 -7.506302 6.498473 8.009798 12.565370 0.000000 0.000000 0.000000 9.593106 -1.028120 4.891415 -0.626498 0.092202 5.784532 -4.628826 4.163539 0.894643 13.642797 -5.271892 -20.415943 0.000000 0.000000 0.000000 -29.026159 -28.761135 13.515248 -23.158035 -16.781024 0.743705 36.306823 -78.177274 -27.309017 0.000000 0.000000 0.000000 28.540288 19.999689 13.483594 29.369451 22.163504 1.306780 6.046250 70.103282 8.318442 0.000000 0.000000 0.000000 
0.069029 0.944259 0.386938 2.090258 2.779719 8.426371 -2.575363 -0.856077 -8.404312 0.182730 0.162545 -5.153785 1.267464 6.944697 11.676934 0.000000 0.000000 0.000000 -2.337408 0.714241 -7.796152 -0.589710 -0.272176 -7.295745 6.695689 8.371561 12.486746 0.000000 0.000000 0.000000 9.690125 -1.024016 4.874092 -0.324004 -0.045660 5.540124 -4.450231 4.116557 0.941003 13.847099 -5.396919 -20.518406 0.000000 0.000000 0.000000 -28.220662 -29.055987 13.747867 -22.361371 -17.765494 0.793716 34.057352 -75.142319 -24.037639 0.000000 0.000000 0.000000 28.841545 20.156523 13.514083 29.007942 22.774959 1.427009 6.478379 69.040463 8.353773 0.000000 0.000000 0.000000 
0.069687 0.944186 0.386427 2.068231 2.803023 8.216963 -2.692394 -0.818441 -8.035556 0.338858 0.164457 -5.458554 1.232686 6.894611 11.694300 0.000000 0.000000 0.000000 -2.265604 0.700292 -7.605059 -0.746486 -0.264413 -7.277419 6.683251 8.377566 12.433930 0.000000 0.000000 0.000000 9.881078 -0.981955 4.475762 -0.023019 -0.217752 5.883772 -4.229783 3.595650 0.777324 13.663399 -5.393970 -20.290144 0.000000 0.000000 0.000000 -27.372698 -29.462562 14.136814 -21.028192 -19.410060 0.870637 33.415272 -71.107155 -21.758353 0.000000 0.000000 0.000000 29.550668 20.647753 13.750367 28.255480 23.739160 1.604486 5.139680 66.491890 6.910680 0.000000 0.000000 0.000000 
0.070221 0.944592 0.385795 1.898310 2.629308 8.097900 -2.494476 -0.794000 -7.869540 0.236783 0.174567 -5.592754 1.299239 7.014840 11.810487 0.000000 0.000000 0.000000 -2.148760 0.701329 -7.575276 -0.694007 -0.264103 -7.231335 6.825585 8.497155 12.662954 0.000000 0.000000 0.000000 10.004200 -0.983673 4.453839 0.179558 -0.314216 5.731382 -3.833847 3.624417 0.875537 13.607265 -5.380802 -20.307680 0.000000 0.000000 0.000000 -26.659656 -30.281198 14.651405 -19.961864 -20.922737 0.945582 32.005093 -67.477753 -19.322088 0.000000 0.000000 0.000000 29.921236 21.060286 14.054019 27.268687 24.846996 1.711265 3.122185 64.404593 5.300708 0.000000 0.000000 0.000000 
0.070658 0.945154 0.385321 1.993185 2.821569 8.020187 -2.464415 -0.797231 -7.904885 -0.039141 0.183975 -5.445293 1.168902 6.866212 11.950124 0.000000 0.000000 0.000000 -2.351751 0.695436 -7.592774 -0.563988 -0.260747 -7.038090 6.747026 8.328604 12.734433 0.000000 0.000000 0.000000 10.150305 -0.989969 4.420459 0.186034 -0.321774 5.710845 -3.889665 3.477001 0.911029 13.814788 -5.359912 -20.924198 0.000000 0.000000 0.000000 -25.914529 -30.594485 14.744947 -19.354644 -22.020419 1.008452 29.970330 -65.431209 -17.230239 0.000000 0.000000 0.000000 29.489085 21.472415 14.220354 27.344106 25.856418 1.941509 0.655364 62.484435 3.609167 0.000000 0.000000 0.000000 
0.071113 0.945319 0.385307 2.000702 3.154003 7.958136 -2.612272 -0.764413 -7.588406 0.165815 0.188147 -5.916278 0.946463 6.583538 12.076886 0.000000 0.000000 0.000000 -2.367221 0.671136 -7.307597 -0.579383 -0.275101 -7.340620 6.634899 8.088558 12.852913 0.000000 0.000000 0.000000 10.368838 -0.965951 4.103980 0.188893 -0.353998 6.225798 -4.075550 3.524282 0.761795 13.620422 -5.247996 -20.818318 0.000000 0.000000 0.000000 -25.817410 -30.644354 14.647241 -19.180907 -21.219266 0.918356 29.947718 -67.426140 -17.928240 0.000000 0.000000 0.000000 29.297022 21.773545 14.490250 27.222716 26.459940 2.036191 -0.881186 60.557051 2.592468 0.000000 0.000000 0.000000 
0.071596 0.945320 0.385891 2.089947 3.142403 7.784186 -2.675387 -0.739465 -7.346765 0.040474 0.194386 -5.922612 0.943410 6.566822 12.046878 0.000000 0.000000 0.000000 -2.574636 0.640090 -6.983787 -0.425368 -0.289232 -7.499068 6.651532 8.115551 12.856974 0.000000 0.000000 0.000000 10.435155 -0.942274 3.944429 0.104025 -0.306025 6.172103 -4.133944 4.099265 1.106322 13.397108 -5.033619 -21.057902 0.000000 0.000000 0.000000 -26.728603 -30.221887 14.278911 -19.969256 -19.455549 0.816472 29.048193 -71.685931 -18.852229 0.000000 0.000000 0.000000 29.134230 21.643342 14.617840 27.184609 26.107063 1.883868 -1.151498 60.132182 2.474630 0.000000 0.000000 0.000000 
0.072013 0.945122 0.386658 2.258153 3.314232 7.713876 -3.018015 -0.700159 -6.937037 0.271944 0.199293 -6.414141 0.803377 6.381146 12.111987 0.000000 0.000000 0.000000 -2.686095 0.614477 -6.697572 -0.584854 -0.293138 -7.712135 6.547562 8.010901 12.725023 0.000000 0.000000 0.000000 10.480283 -0.919518 3.765161 0.000802 -0.274764 6.614764 -4.358705 4.508342 1.107272 13.368735 -4.951919 -21.126066 0.000000 0.000000 0.000000 -27.623831 -29.515304 13.683689 -21.123926 -17.301740 0.683808 27.410579 -77.156445 -19.624102 0.000000 0.000000 0.000000 28.740233 21.247627 14.473444 27.699881 25.687284 1.827243 -0.144723 59.715169 3.085082 0.000000 0.000000 0.000000 
0.072269 0.944991 0.387156 2.289656 3.678307 7.680363 -3.058006 -0.679144 -6.767624 0.273468 0.205122 -6.618460 0.608377 6.099689 12.083858 0.000000 0.000000 0.000000 -2.818507 0.609401 -6.699103 -0.412257 -0.289761 -7.475831 6.329703 7.755471 12.513346 0.000000 0.000000 0.000000 10.562398 -0.890465 3.488013 -0.005169 -0.289920 6.782193 -4.476295 4.902219 1.597792 12.999595 -4.725989 -21.066000 0.000000 0.000000 0.000000 -28.832869 -29.069342 13.305673 -22.049201 -15.265553 0.497990 32.217097 -81.671085 -25.578995 0.000000 0.000000 0.000000 28.637991 20.865698 14.430479 27.667940 24.725925 1.547757 0.916048 60.166474 3.774157 0.000000 0.000000 0.000000 
